:SAMPLES-PER-SECOND 30
:FULLY-SPECIFIED
:DEGREES
62
root  35.1943 38.0012 -32.0838 155.796 -79.396 -155.404
RightUpLeg  -18.7293 -8.30834 8.87704
RightLeg  34.8851 -6.23447 -4.90078
RightFoot  -15.47 -0.300747 -5.63147
RightToes  -1.74624e-010 0 -3.6325e-017
Spine  12.1277 -1.67494 12.2403
Spine1  4.11486 0.317028 -1.77015
HEad  -19.5341 8.02357 -8.97222
LeftShoulder1  7.22965 -10.8146 -43.9425
LeftArm  2.46645 8.72335 -32.8633
LeftForeArm  -175.907 -61.5143 -163.085
LeftHand  -0.244104 0.0205437 5.32207
RightShoulder  5.13063 8.85333 35.5263
RightArm  -0.635359 -41.106 32.931
RightForeArm  136.075 70.3491 148.202
RightHand  0.192581 -9.79722 -6.18443
LeftUpLeg  -7.3653 2.91546 4.09267
LeftLeg  63.9249 2.85588 7.02288
LeftFoot  -1.69273 0.399026 -4.58239
LeftToes  1.28235e-010 -1.10989e-010 2.53219e-011
63
root  33.3518 37.4702 -32.2585 154.561 -78.8799 -154.342
RightUpLeg  -17.5483 -8.18306 8.64955
RightLeg  39.79 -5.84884 -5.48349
RightFoot  -20.3758 -0.511222 -4.8124
RightToes  -1.74624e-010 0 -3.6325e-017
Spine  12.0237 -1.46543 13.8262
Spine1  5.05092 0.813816 -2.26254
HEad  -21.2026 7.92361 -9.84238
LeftShoulder1  7.6799 -10.8699 -46.5864
LeftArm  -0.429578 10.079 -32.3119
LeftForeArm  -176.098 -62.8383 -162.131
LeftHand  -0.244104 0.0205437 5.32207
RightShoulder  5.90797 9.30905 39.9867
RightArm  3.22091 -30.0063 26.1797
RightForeArm  128.636 71.3422 145.296
RightHand  0.312389 -10.0517 -8.77573
LeftUpLeg  -13.1433 0.77291 4.58588
LeftLeg  69.7171 2.84967 9.32995
LeftFoot  -4.4179 0.1826 -2.56628
LeftToes  1.28235e-010 -1.10989e-010 2.53219e-011
64
root  31.4203 37.335 -32.5051 155.063 -79.2155 -154.99
RightUpLeg  -13.9863 -9.67653 7.51441
RightLeg  40.1847 -5.26532 -5.05061
RightFoot  -24.2798 -0.55123 -3.37848
RightToes  -1.74624e-010 0 -3.6325e-017
Spine  11.3152 -1.0227 14.1706
Spine1  5.99438 1.37425 -2.63895
HEad  -20.7314 6.94412 -9.99518
LeftShoulder1  8.35187 -11.485 -48.6403
LeftArm  -2.1681 14.9064 -30.5613
LeftForeArm  -179.137 -63.3825 -161.431
LeftHand  -0.244104 0.0205437 5.32207
RightShoulder  6.16927 9.48595 41.2815
RightArm  3.30485 -21.0084 26.8728
RightForeArm  126.345 72.917 141.694
RightHand  0.353843 -9.69194 -10.4325
LeftUpLeg  -18.6064 -1.22542 4.38153
LeftLeg  70.9334 2.94915 10.361
LeftFoot  -7.01037 0.0784377 -0.994579
LeftToes  1.28235e-010 -1.10989e-010 2.53219e-011
65
root  29.3163 37.6692 -32.8475 161.415 -80.0604 -161.69
RightUpLeg  -8.17688 -10.6314 5.06295
RightLeg  36.6553 -5.04189 -4.29299
RightFoot  -24.8609 -0.503621 -2.84516
RightToes  -1.74624e-010 0 -3.6325e-017
Spine  10.5258 0.114981 13.549
Spine1  6.0293 2.80579 -4.34835
HEad  -18.3601 4.62881 -8.01737
LeftShoulder1  8.59223 -11.8115 -48.9732
LeftArm  -0.747854 21.0596 -28.1663
LeftForeArm  178.098 -62.59 -161.758
LeftHand  -0.244104 0.0205437 5.32207
RightShoulder  5.97248 9.33131 40.3711
RightArm  0.979457 -17.9512 32.4688
RightForeArm  136.461 71.8766 145.359
RightHand  0.287889 -9.26802 -9.65284
LeftUpLeg  -22.284 -2.10432 2.79951
LeftLeg  67.0087 3.53419 9.85974
LeftFoot  -9.35491 0.0688989 -0.912813
LeftToes  1.28235e-010 -1.10989e-010 2.53219e-011
66
root  27.0686 38.3754 -33.2307 173.632 -80.8358 -173.985
RightUpLeg  -1.83066 -10.3049 1.85233
RightLeg  31.1334 -4.68058 -3.30683
RightFoot  -22.13 -0.269272 -1.19839
RightToes  -1.74624e-010 0 -3.6325e-017
Spine  9.50667 1.71882 12.2432
Spine1  5.23565 4.71656 -7.12249
HEad  -15.7112 1.69915 -4.39867
LeftShoulder1  8.19553 -11.3866 -48.0272
LeftArm  2.9375 26.4086 -25.2909
LeftForeArm  177.754 -60.8239 -162.976
LeftHand  -0.244104 0.0205437 5.32207
RightShoulder  5.75152 8.95578 40.0252
RightArm  -0.168306 -18.4876 37.5865
RightForeArm  147.721 68.1754 152.912
RightHand  0.243772 -9.30367 -8.31677
LeftUpLeg  -24.0296 -1.12955 0.0499623
LeftLeg  58.0424 5.01593 9.09744
LeftFoot  -11.0785 0.0720302 -2.25706
LeftToes  1.28235e-010 -1.10989e-010 2.53219e-011
67
root  24.7474 39.2367 -33.5759 -174.874 -81.5194 175.026
RightUpLeg  3.62419 -11.0273 -1.29921
RightLeg  25.6042 -3.10923 -1.87082
RightFoot  -16.7546 0.0109793 2.99939
RightToes  -1.74624e-010 0 -3.6325e-017
Spine  7.61519 3.11083 10.6575
Spine1  4.57618 6.09083 -9.29714
HEad  -13.0173 -0.876051 -1.33312
LeftShoulder1  7.56624 -10.6105 -46.7558
LeftArm  6.0597 31.1301 -22.8224
LeftForeArm  179.207 -59.0379 -164.241
LeftHand  -0.244104 0.0205437 5.32207
RightShoulder  5.62818 8.56855 40.4535
RightArm  2.27401 -18.8411 39.7265
RightForeArm  150.055 64.9015 156.925
RightHand  0.239591 -9.50546 -7.81581
LeftUpLeg  -24.2544 1.84646 -3.10312
LeftLeg  44.9369 7.39622 8.20123
LeftFoot  -11.5425 0.0639156 -3.23444
LeftToes  1.28235e-010 -1.10989e-010 2.53219e-011
